<?xml version="1.0" encoding="utf-8"?>
<!-- Generator: Adobe Illustrator 23.0.3, SVG Export Plug-In . SVG Version: 6.00 Build 0)  -->
<svg version="1.1" id="레이어_1" xmlns="http://www.w3.org/2000/svg" xmlns:xlink="http://www.w3.org/1999/xlink" x="0px"
	 y="0px" viewBox="0 0 1000 297.8" style="enable-background:new 0 0 1000 297.8;" xml:space="preserve">
<style type="text/css">
	.st0{fill:#FFFFFF;}
</style>
<g>
	<g>
		<path class="st0" d="M702.5,120.1c4.3,0,8.1-0.7,11.2-2c3.1-1.3,5.7-3.1,7.7-5.2c2-2.2,3.5-4.6,4.5-7.4c0.9-2.8,1.4-5.6,1.4-8.5
			c0-3.2-0.6-5.9-1.7-8.3c-1.2-2.3-2.7-4.2-4.7-5.6c-2-1.4-4.3-2.5-6.9-3.2c-2.6-0.7-5.5-1-8.4-1c-4.8,0-8.8,0.8-11.9,2.3
			c-3.2,1.5-5.8,3.4-7.7,5.5c-1.9,2.2-3.3,4.5-4.2,7c-0.9,2.5-1.3,4.7-1.3,6.7c0,5.9,1.8,10.7,5.4,14.3
			C689.4,118.4,695,120.1,702.5,120.1z"/>
		<path class="st0" d="M991.4,208.8c-3.2,2.7-6.5,5.2-9.9,7.7c-3.5,2.4-7,4.7-10.5,6.7c-3.5,2-6.9,3.8-10.1,5.3
			c-3.2,1.5-6.1,2.7-8.8,3.5c-2.7,0.9-4.9,1.3-6.7,1.3c-2.9,0-5.5-0.4-7.9-1.3c-2.4-0.9-4.3-2.3-6-4.3c-1.6-2-2.9-4.6-3.7-7.7
			c-0.9-3.2-1.3-7-1.3-11.6c0-1.8,0-3.7,0.1-5.9c0-2.1,0.1-4.3,0.2-6.6c0.1-2.3,0.2-4.6,0.3-7c0.1-2.3,0.2-4.6,0.3-6.8
			c0.3-5.1,0.6-10.3,0.9-15.6c2.1-2.6,4.5-5.6,7-8.9c2.5-3.3,5-6.6,7.5-10h49.1c2,0,3.9-1,5.6-3c1.7-2,2.6-4.6,2.6-7.8
			c0-2.8-0.4-5-1.2-6.8c-0.8-1.8-2-2.8-3.7-2.8c-1.5-0.1-3.3-0.2-5.5-0.3c-2.2-0.1-4.6-0.2-7.2-0.3c-2.6-0.1-5.2-0.2-7.9-0.2
			c-2.7-0.1-5.3-0.1-7.6-0.2c-2.3-0.1-4.4-0.2-6.2-0.4c-1.8-0.2-3.1-0.1-3.8,0.2c3.1-4.8,6-9.5,8.8-14.4c2.8-4.8,5.2-9.6,7.2-14.3
			c2-4.7,3.7-9.3,4.9-13.9c1.2-4.5,1.8-8.9,1.8-12.9c0-4.9-0.6-9.7-1.7-14.2c-1.2-4.6-2.8-8.5-4.9-11.9c-2.1-3.4-4.7-6.1-7.7-8.2
			c-3-2-6.4-3.1-10-3.1c-5.7,0-11.1,2.5-16.3,7.6c-5.2,5.1-10,11.8-14.4,20.1c-4.4,8.4-8.3,17.9-11.9,28.7
			c-3.5,10.8-6.4,21.9-8.7,33.3c-0.9,0.2-2.4,0.2-4.7,0.2c-2.3,0-4.8-0.1-7.7-0.2c-2.9-0.1-5.9-0.1-9-0.1c-3.1,0-6,0.2-8.6,0.6
			c-2.6,0.4-4.8,0.9-6.4,1.6c-1.7,0.7-2.5,1.7-2.5,3.1c0,0.9,0,1.9,0.1,3.1c0.1,1.2,0.4,2.3,0.9,3.4c0.5,1.1,1.3,2,2.4,2.8
			c1.1,0.8,2.7,1.3,4.8,1.6c4.6,0.6,8.2,1,10.6,1.4c2.4,0.4,4.5,0.7,6,1.1c1.6,0.3,3.1,0.7,4.5,1c1.4,0.3,3.4,0.7,6,1.1
			c-0.8,5.7-1.4,11.5-1.8,17.3c-0.4,5.8-0.6,11.2-0.6,16.4c0,10.4,0.5,19.9,1.6,28.7c-2.7,2.4-5.7,4.8-9.2,7.4
			c-4.8,3.5-9.8,6.8-15.2,9.8c-5.4,3-10.9,5.5-16.6,7.5c-5.7,2-11.1,3-16.2,3c-1.6,0-3.1-0.2-4.6-0.5c-1.4-0.3-2.8-0.9-4-1.7
			c-1.3-0.8-2.5-2-3.8-3.5c-1.2-1.5-2.5-3.4-3.8-5.6c7.4-2,14.3-4.8,20.7-8.4c6.4-3.6,11.8-7.7,16.5-12.2
			c4.6-4.6,8.6-10.1,12.1-16.5c3.5-6.4,5.2-12.2,5.2-17.4c0-4.8-0.9-9.2-2.6-13.1c-1.7-3.9-4.1-7.3-7.1-10c-3-2.8-6.6-4.9-10.7-6.4
			c-4.1-1.5-8.5-2.3-13.3-2.3c-5.8,0-11.2,1-16,3.1c-4.8,2.1-9.1,4.8-13,8.3c-3.9,3.5-7.2,7.5-10.1,12.1c-2.9,4.6-5.3,9.4-7.2,14.4
			c-1.9,5-3.8,10.8-5.5,17.3c-1.8,6.5-2.7,12.1-2.7,16.8c0,4,0.3,7.9,1,11.8c-0.2,0.2-0.5,0.3-0.7,0.5c-2.4,1.5-4.8,3.1-7.3,4.6
			c-2.5,1.5-5,2.8-7.4,4c-2.4,1.2-4.7,2.1-6.8,2.8s-4,1-5.7,1c-0.7,0-1.4-0.5-2.2-1.5c-0.8-1-1.5-2.3-2.2-4
			c-0.7-1.7-1.3-3.6-1.7-5.7c-0.5-2.1-0.7-4.3-0.7-6.5v-1.8c0.3-1.7,0.6-3.5,1-5.3c0.4-1.8,0.9-3.5,1.3-5.1c0.4-1.6,0.9-3.1,1.3-4.4
			c0.5-1.4,0.9-2.5,1.3-3.4c3.9-7.7,8.2-15.6,12.9-23.7c4.7-8.1,9.3-16.3,13.9-24.7c4.6-8.4,9-16.8,13.3-25.3
			c4.3-8.5,8-16.9,11.2-25.4c3.2-8.4,5.8-16.8,7.7-25.2c1.9-8.4,2.9-16.6,2.9-24.6c0-3.2-0.3-6.4-0.9-9.6c-0.6-3.1-1.6-5.9-3.1-8.4
			c-1.5-2.5-3.5-4.5-6.1-6s-5.8-2.3-9.8-2.3c-5.4,0-10.8,1.6-16,4.7c-5.3,3.1-10.3,7.4-15.1,12.8c-4.8,5.4-9.4,11.8-13.8,19.1
			s-8.5,15.2-12.2,23.6c-3.7,8.4-7.5,19.6-11.2,33.6c-3.7,13.9-5.6,20.9-5.6,20.9c0,0-1.2,7-3.7,20.9c-2.5,14-3.7,25.1-3.7,33.5
			c0,9.7,0.8,19,2.5,27.9c0.1,0.4,0.1,0.7,0.2,1c-3.5,3-7,6-10.6,8.9c-3.8,3-7.6,5.6-11.4,7.7c-3.8,2.1-7.2,3.2-10.2,3.2
			c-2.6,0-4.4-1.1-5.2-3.4c-0.9-2.3-1.3-5.3-1.3-9.1c0-3.9,0.6-8.3,1.8-13.1c1.2-4.8,2.2-9.6,3-14.5c0.8-4.9,2.3-10.7,4.5-17.6
			c2.2-6.9,3.9-12.5,5-16.9c1.1-4.4,2.1-8.3,3-11.7c0.9-3.4,1.3-6.1,1.3-7.9c0-2.2-0.6-4-1.9-5.3c-1.3-1.3-3.6-2-7.2-2
			c-1.9,0-4.1,0.2-6.5,0.7c-2.4,0.5-4.7,1.2-6.9,2.2c-2.2,1-4.2,2.3-6,3.8c-1.9,1.7-3.1,3.7-3.5,5.8c-0.8,3.1-2.8,9.7-6,19.9
			c-3.5,12.5-5.8,20.5-7,24.2c-0.5,1.4-1.6,6.7-3.2,15.9c-2.6,3.3-5.2,6.4-7.8,9.2c-1.8,1.9-3.7,3.8-5.7,5.6c-2,1.8-4,3.4-6,4.9
			c-2,1.4-4,2.6-5.9,3.5c-2,0.9-3.8,1.3-5.6,1.3c-2.4,0-3.9-1.1-4.7-3.3c-0.7-2.2-1.1-5.3-1.1-9.2c0-4.6,0.7-10.2,2.1-16.9
			c1.4-6.7,2.7-12.6,3.8-17.8c1.1-5.2,2.1-10.3,2.9-15.3c0.9-5,1.3-9.5,1.3-13.6c0-2.7-0.2-4.8-0.7-6.3c-0.5-1.6-1.1-2.8-2-3.6
			s-1.8-1.4-3-1.7c-1.1-0.3-2.3-0.4-3.6-0.4c-0.9,0-1.9,0-2.9,0.1c-1,0-1.9,0.1-2.9,0.1c-1.1,0-2.2-0.1-3.3-0.2
			c-1.1-0.1-2.1-0.4-3.1-0.8c-1-0.4-1.9-1.1-2.6-2.1c-0.7-0.9-1.4-1.9-2.1-2.9c-0.7-1-1.6-1.9-2.8-2.6c-1.1-0.8-2.7-1.2-4.6-1.2
			c-5.9,0-11.7,1.3-17.4,3.8c-5.7,2.5-11.1,5.9-16.3,10.1c-5.1,4.2-9.9,9.2-14.2,14.9c-4.3,5.7-8.4,12.4-12.2,20.3
			c-3.8,7.8-6.6,15.1-8.4,21.8c-0.3,1-0.5,2-0.7,3c0-0.1,0-0.2,0-0.3c0-8.4-1.6-15.9-4.9-22.5c-3.3-6.6-7.6-12.4-13-17.6
			c-5.4-5.2-11.5-9.9-18.4-14c-6.9-4.1-13.9-8-21.1-11.6c-7.2-3.6-14.2-7.1-21.1-10.5c-6.9-3.4-13-7-18.4-10.8
			c-5.4-3.8-9.8-7.9-13-12.3c-3.3-4.4-4.9-9.4-4.9-15.1c0-3.3,0.9-6.7,2.7-10.1c1.8-3.4,4.6-6.5,8.4-9.3c3.8-2.8,8.5-5,14.2-6.8
			c5.7-1.7,12.3-2.6,20-2.6c6.9,0,13.3,0.6,19.1,1.7c5.8,1.1,10.8,2.8,14.9,5c4.1,2.2,7.4,5,9.7,8.2c2.3,3.3,3.5,7.1,3.5,11.4
			c0,2.8-0.6,5.8-1.7,9.1c-1.1,3.3-2.8,6.8-5.2,10.5c-2.5,3.9-4.3,7.4-5.3,10.4c-1,3-1.5,5.6-1.5,7.8c0,3,0.8,5.2,2.4,6.7
			c1.6,1.5,3.7,2.2,6.3,2.2c3.4,0,7.2-1.3,11.4-3.9c4.2-2.6,8.1-6.6,11.7-12c3.7-5.5,6.3-10.9,8-16c1.7-5.1,2.5-10.1,2.5-15
			c0-8.2-2-15.6-6.1-22.4c-4-6.7-9.4-12.5-16-17.4c-6.6-4.9-14.2-8.6-22.7-11.2c-8.5-2.6-17.1-4-26-4c-14,0-26.1,1.7-36.5,5.1
			c-10.4,3.4-19,7.9-26,13.4c-6.9,5.5-12.1,11.7-15.6,18.7c-3.4,7-5.2,14-5.2,21.2c0,7.7,1.6,14.5,4.9,20.5c3.3,6,7.6,11.4,13,16.3
			c5.4,4.9,11.5,9.3,18.4,13.3c6.9,4,13.9,7.9,21.1,11.6c7.2,3.7,14.2,7.3,21.1,10.9c6.9,3.6,13.1,7.4,18.5,11.4
			c5.4,4,9.8,8.4,13,13.2c3.3,4.8,4.9,10.2,4.9,16.2c0,6.6-1.8,12.4-5.5,17.4c-3.7,5.1-8.4,9.3-14.3,12.8
			c-5.9,3.5-12.5,6.1-19.9,7.9c-7.4,1.8-14.8,2.7-22.2,2.7c-6.3,0-12.4-0.7-18.2-2c-5.9-1.4-11-3.4-15.6-6.3
			c-4.5-2.8-8.1-6.4-10.8-10.7c-2.7-4.3-4.1-9.5-4.1-15.5c0-2.7,0.2-5.2,0.5-7.5c0.3-2.3,0.7-4.4,1-6.3c0.4-1.9,0.7-3.7,1-5.3
			c0.3-1.6,0.5-3.2,0.5-4.6c0-3.1-0.9-5.5-2.7-7c-1.8-1.5-4.1-2.2-6.8-2.2c-2.6,0-5.5,0.7-8.6,2.1c-3.1,1.4-5.9,3.5-8.5,6.3
			c-2.6,2.8-4.8,6.2-6.5,10.4c-1.7,4.1-2.6,8.9-2.6,14.4c0,10.6,2.4,19.8,7.1,27.7c4.7,7.9,11,14.4,18.9,19.7
			c7.8,5.2,16.8,9.2,26.8,11.8c10.1,2.6,20.4,3.9,31.1,3.9c7.6,0,15.1-0.7,22.6-2c7.5-1.3,14.7-3.3,21.5-5.8
			c6.8-2.6,13.2-5.8,19-9.7c5.9-3.9,11-8.4,15.3-13.5c4.3-5.1,7.7-10.9,10.2-17.3c0.7-1.8,1.3-3.7,1.8-5.6c0,0.4,0,0.9,0,1.3
			c0,5.7,0.9,10.8,2.7,15.3c1.8,4.5,4.2,8.3,7.2,11.5c3,3.1,6.4,5.5,10.3,7.2c3.9,1.7,7.9,2.5,12,2.5c3.9,0,7.7-0.6,11.6-1.9
			c3.9-1.3,7.6-2.9,11.1-4.9c3.6-2,6.8-4.2,9.9-6.6c3-2.4,5.5-4.8,7.6-7.2c2.7,6.8,6,12,9.8,15.6c3.8,3.6,8.5,5.4,14.2,5.4
			c4.7,0,9.4-1.2,14.1-3.5c4.7-2.3,9.1-5.2,13.2-8.5c2-1.6,3.8-3.2,5.6-4.9c0.1,0.4,0.2,0.8,0.3,1.2c0.8,3.2,2.2,5.9,4,8.1
			c1.9,2.2,4.3,3.9,7.3,5.2c3,1.2,6.8,1.9,11.2,1.9c4.9,0,10.2-0.9,15.7-2.7c5.5-1.8,10.9-4,16.2-6.7c5.3-2.7,10.2-5.6,14.8-8.8
			c2.6-1.9,5-3.6,7.1-5.4c0.2,0.5,0.4,1.1,0.6,1.6c2.9,6.7,6.4,12.1,10.3,16c3.9,4,8.2,6,12.8,6c3,0,6.2-0.4,9.6-1.2
			c3.4-0.8,6.9-1.8,10.5-3.1c3.6-1.3,7.2-2.8,10.7-4.4c3.6-1.7,7-3.3,10.3-5c1.9-1,3.9-2.1,5.8-3.2c0.2,0.2,0.3,0.4,0.4,0.6
			c4,5,9,9,14.9,11.9s12.9,4.4,20.9,4.4c5.1,0,10.2-0.6,15.2-1.8c5-1.2,9.8-2.8,14.4-4.7c4.6-2,9.1-4.2,13.3-6.8
			c4.2-2.5,8.2-5.1,11.8-7.8c3.5-2.6,6.9-5.3,10.3-8.2c0.8,2.3,1.6,4.4,2.5,6.4c3.3,7.4,7.4,13,12.3,16.9c4.9,3.9,10.6,5.9,17,5.9
			c3.2,0,6.7-0.6,10.6-1.8c3.9-1.2,8.3-3,13.3-5.4c5-2.4,10.7-5.4,17.1-8.9c6.4-3.6,13.7-7.8,21.9-12.5v-32.7
			C997.4,203.4,994.6,206.1,991.4,208.8z M933.1,102.2c1.8-7.3,3.8-13.9,5.9-20c2.1-6,4.3-11,6.5-14.9c2.3-3.9,4.5-5.8,6.7-5.8
			c1.6,0,2.9,0.3,3.8,1c0.9,0.7,1.6,1.5,2,2.5c0.4,1,0.7,2.1,0.8,3.2c0.1,1.1,0.2,2.2,0.2,3.1c0,2.7-0.7,6.1-2.2,10.4
			c-1.5,4.2-3.3,8.7-5.5,13.6c-2.2,4.8-4.7,9.8-7.5,14.8c-2.8,5-5.5,9.7-8,14c-1.4-0.1-2.7-0.2-4-0.3c-1.3-0.1-2.6-0.2-3.8-0.3
			C929.6,116.6,931.3,109.5,933.1,102.2z M592.5,201.3c-0.3,2.7-1.1,6.2-2.2,10.3c-1.2,4.1-2.7,8.1-4.5,12c-1.9,3.9-4.1,7.2-6.7,9.9
			c-2.6,2.7-5.4,4.1-8.6,4.1c-2,0-3.6-0.5-4.9-1.5c-1.3-1-2.3-2.3-3.1-4c-0.8-1.6-1.3-3.5-1.6-5.5s-0.4-4.2-0.4-6.4
			c0-3.7,0.5-7.7,1.5-11.9c1-4.2,2.7-9.1,5-14.7c2.4-5.6,4.8-10.3,7.3-14.1c2.5-3.8,5.2-7.2,8.1-10.1c2.9-3,6.1-5.3,9.4-7
			c3.3-1.7,6.7-2.6,10.2-2.6L592.5,201.3z M761.3,130.2c2.3-11.5,3.4-17.3,3.4-17.3c0,0,1.9-6.2,5.6-18.7c3.8-12.4,7-21.4,9.7-27
			c2.7-5.5,5.4-9.9,8.1-13.1c2.7-3.2,5.2-4.9,7.6-4.9c0.6,0,1,0.9,1.2,2.6c0.1,1.8,0.2,3.9,0.2,6.4c-0.8,7.8-2.6,16.3-5.4,25.3
			c-2.8,9.1-6.2,18.2-10,27.3c-3.8,9.1-7.9,18-12.2,26.6c-4.3,8.6-8.4,16.3-12.2,23.2C757.6,151.8,759,141.7,761.3,130.2z
			 M823.5,194.4c0.2-2.6,1-5.9,2.4-9.9c1.4-4,2.6-7.4,3.7-10.1c1.1-2.7,2.5-5.1,4.2-7.2c1.8-2.1,3.9-3.9,6.5-5.2
			c2.6-1.3,5.8-2,9.4-2c2.1,0,3.8,1.2,5.2,3.6c1.4,2.4,2.1,5.5,2.1,9.2c0,2.7-1.5,6-4.5,10.1c-3,4.1-6.1,7.3-9.2,9.7
			c-3.1,2.4-6.5,4.4-10.1,5.9c-3.6,1.5-7,2.3-10.1,2.3C823.2,199.2,823.3,197,823.5,194.4z"/>
	</g>
	<path class="st0" d="M148.9,0C66.7,0,0,66.7,0,148.9c0,82.2,66.7,148.9,148.9,148.9c82.2,0,148.9-66.7,148.9-148.9
		C297.8,66.7,231.1,0,148.9,0z M148.9,266.7c-65,0-117.8-52.7-117.8-117.8c0-65,52.7-117.8,117.8-117.8c22.2,0,42.9,6.1,60.6,16.8
		c-3.1-0.5-6.2-0.7-9.4-0.7c-33.7,0-61,27.3-61,61c0,33.7,27.3,61,61,61c32.2,0,58.6-25,60.8-56.7c3.7,11.5,5.8,23.7,5.8,36.4
		C266.7,213.9,213.9,266.7,148.9,266.7z"/>
</g>
</svg>
